<!--?xml version="1.0" encoding="utf-8"?-->
<!-- Generator: Adobe Illustrator 18.1.1, SVG Export Plug-In . SVG Version: 6.00 Build 0)  -->

<svg version="1.1" id="_x32_" xmlns="http://www.w3.org/2000/svg" xmlns:xlink="http://www.w3.org/1999/xlink" x="0px" y="0px" viewBox="0 0 512 512" style="width: 256px; height: 256px; opacity: 1;" xml:space="preserve">
<style type="text/css">
	.st0{fill:#4B4B4B;}
</style>
<g>
	<path class="st0" d="M386.263,209.383c9.176-21.049,13.239-40.761,13.224-59.05c0.007-33.272-13.153-61.31-29.868-85.098
		c1.359-3.162,2.239-6.509,2.861-9.999c0.952-5.536,1.266-11.451,1.266-17.238c-0.007-15.921-2.418-30.97-2.439-31.198
		c-0.422-2.661-2.146-4.936-4.592-6.058c-2.446-1.13-5.292-0.958-7.588,0.45c0,0-1.166,0.716-3.326,2.01
		c-7.546,4.513-26.994,15.892-47.671,26.056c-10.335,5.085-20.978,9.856-30.469,13.303c-9.42,3.469-17.866,5.478-22.795,5.464
		l-0.128-0.007c-2.804,0.015-6.838-0.579-11.487-1.774c-16.422-4.127-40.103-15.22-59.2-25.233
		c-9.577-5.014-18.082-9.749-24.175-13.232c-3.047-1.738-5.493-3.169-7.174-4.156c-1.674-0.988-2.56-1.524-2.568-1.524
		c-2.303-1.388-5.15-1.538-7.588-0.387c-2.439,1.145-4.134,3.434-4.534,6.101c-0.029,0.214-2.174,14.455-2.182,29.847
		c0.008,5.986,0.322,12.152,1.309,17.939c0.665,3.712,1.595,7.273,3.062,10.628c-16.329,23.668-29.139,51.454-29.139,84.255
		c-0.007,18.596,4.206,38.644,13.754,60.037c-19.583,28.402-35.076,65.33-35.104,106.506c-0.007,22.88,4.828,46.977,16.308,71.195
		c11.472,24.218,29.553,48.522,55.824,72.06l0.014-0.022c4.993,5.565,11.379,9.048,18.224,9.069c2.482,0.015,4.95-0.522,7.267-1.459
		c1.359,4.213,3.247,8.819,6.08,13.561c4.613,7.674,11.68,15.485,22.022,21.221c10.335,5.751,23.788,9.362,40.862,9.348h0.329h0.207
		c17.073-0.064,30.519-3.69,40.855-9.449c15.564-8.633,23.538-21.792,27.365-32.45c0.35-0.966,0.629-1.888,0.923-2.818
		c2.26,0.887,4.663,1.388,7.081,1.373c6.909-0.014,13.332-3.562,18.317-9.212l0.015,0.014
		c25.799-23.517,43.565-47.714,54.844-71.788c11.286-24.068,16.05-47.978,16.042-70.673
		C422.261,275.242,406.318,237.936,386.263,209.383z M152.63,22.191c8.004,4.564,19.69,11.037,32.608,17.545
		c11.844,5.958,24.683,11.952,36.72,16.515c6.022,2.288,11.851,4.22,17.323,5.607c5.45,1.373,10.528,2.239,15.349,2.268v0.007h0.108
		h0.128h0.036c4.856-0.029,9.964-0.937,15.442-2.36c19.026-5.021,42.922-16.672,62.548-27.122c9.433-5.036,17.752-9.763,23.91-13.34
		c0.45,4.928,0.837,10.815,0.83,16.686c0.008,5.179-0.3,10.307-1.03,14.498c-0.623,3.855-1.745,6.788-2.632,8.118
		c-8.232,3.004-25.441,9.842-43.708,20.57c-12.602,7.41-25.698,16.658-36.656,27.966c-7.138,7.374-13.36,15.692-17.809,24.969
		c-2.532-5.1-5.614-9.892-9.076-14.405c-2.796-4.406-6.28-8.326-10.328-11.587c-16.143-15.942-36.356-27.73-52.864-35.754
		c-13.081-6.337-23.788-10.285-28.28-11.844c-0.816-1.66-1.703-4.363-2.232-7.653c-0.766-4.427-1.08-9.827-1.073-15.213
		C151.944,32.204,152.251,26.783,152.63,22.191z M330.832,121.895c5.966,5.972,9.628,14.148,9.634,23.26
		c-0.006,9.105-3.668,17.28-9.634,23.26c-5.979,5.965-14.154,9.627-23.26,9.634c-9.112-0.007-17.287-3.669-23.266-9.634
		c-5.965-5.979-9.627-14.154-9.635-23.26c0.008-9.112,3.67-17.288,9.635-23.26c5.98-5.965,14.154-9.627,23.266-9.634
		C316.677,112.268,324.853,115.93,330.832,121.895z M239.503,145.155c-0.007,9.112-3.669,17.287-9.635,23.26
		c-5.972,5.965-14.147,9.627-23.259,9.634c-9.113-0.007-17.288-3.669-23.26-9.634c-5.966-5.973-9.634-14.148-9.634-23.26
		s3.668-17.288,9.634-23.26c5.972-5.965,14.147-9.627,23.26-9.634c7.939,0.007,15.07,2.904,20.749,7.567
		c0.458,0.465,0.965,0.894,1.409,1.358c2.06,2.182,3.955,4.442,5.75,6.745C237.629,132.946,239.496,138.796,239.503,145.155z
		 M391.656,380.832c-10.285,21.936-26.65,44.417-51.111,66.725l-0.78,0.815c-2.825,3.398-5.386,4.192-6.694,4.177
		c-0.866-0.029-1.416-0.215-2.146-0.794c-0.708-0.594-1.609-1.753-2.253-3.955c-1.122-3.855-4.9-6.294-8.876-5.73
		c-3.97,0.566-6.916,3.962-6.916,7.975l-0.007,0.064c0.021,1.08-0.551,13.096-7.596,23.961c-3.526,5.464-8.533,10.728-16.136,14.798
		c-7.603,4.048-17.938,6.945-32.328,7.024l-0.501-0.008c-14.856-0.007-25.37-3.069-33.037-7.317
		c-11.43-6.373-17.037-15.692-20.034-23.839c-1.466-4.049-2.217-7.732-2.589-10.342c-0.186-1.302-0.279-2.332-0.322-2.997
		l-0.035-0.716l-0.007-0.136h-0.007c-0.029-3.998-2.99-7.381-6.96-7.918c-3.977-0.543-7.753,1.932-8.84,5.794
		c-0.636,2.232-1.538,3.398-2.246,3.998c-0.73,0.587-1.28,0.78-2.152,0.801c-1.316,0.021-3.862-0.765-6.695-4.12l-0.787-0.815
		c-24.918-22.323-41.562-44.896-52.019-66.954c-10.45-22.072-14.748-43.672-14.756-64.3c-0.029-38.723,15.364-74.256,34.696-100.992
		c1.731-2.388,2.017-5.507,0.744-8.175c-10.056-21.15-14.083-40.089-14.09-57.376c0-28.445,11.036-52.956,26.249-75.05
		c8.204,3.018,25.52,9.97,43.115,20.606c1.108,0.666,2.202,1.416,3.304,2.11c-23.044,3.29-40.768,23.045-40.775,47.006
		c0.007,26.263,21.278,47.534,47.542,47.542c23.788-0.007,43.429-17.48,46.926-40.289l4.556-0.987l2.475,0.544
		c3.311,23.023,23.059,40.725,47.005,40.732c26.256-0.007,47.535-21.278,47.542-47.542c-0.006-25.026-19.347-45.475-43.887-47.356
		c8.068-5.143,16.229-9.577,23.632-13.153c8.146-3.948,15.37-6.938,20.527-8.927c0.565-0.214,0.994-0.372,1.509-0.564
		c15.349,22.058,26.478,46.576,26.485,75.178c-0.007,17.03-3.905,35.691-13.59,56.533c-1.252,2.675-0.937,5.793,0.816,8.168
		c19.776,26.857,35.597,62.734,35.569,101.964C406.167,337.454,401.933,358.889,391.656,380.832z" style="fill: rgb(75, 75, 75);"></path>
	<path class="st0" d="M236.635,402.132c-4.177-2.41-8.319-3.691-11.494-4.442c-3.161-0.751-5.364-0.944-5.621-0.972l-0.294-0.022
		h-13.733l-0.308,0.022c-0.464,0.071-7.038,0.572-14.34,3.962c-3.647,1.723-7.56,4.226-10.721,8.124
		c-3.169,3.863-5.343,9.255-5.308,15.4c0,3.948,3.204,7.152,7.152,7.152c3.948,0,7.145-3.204,7.145-7.152
		c0.043-3.018,0.844-4.742,2.139-6.416c0.987-1.23,2.367-2.346,3.998-3.29c2.418-1.416,5.343-2.374,7.596-2.896
		c0.951-0.222,1.738-0.365,2.36-0.458v20.463c0,3.948,3.197,7.145,7.145,7.145c3.956,0,7.153-3.197,7.153-7.145v-20.47
		c1.859,0.308,5.508,1.08,8.704,2.689c2.217,1.094,4.134,2.518,5.364,4.112c1.223,1.631,1.981,3.341,2.017,6.266
		c0,3.948,3.204,7.152,7.152,7.152c3.948,0,7.145-3.204,7.145-7.152c0.043-6.144-2.138-11.537-5.307-15.4
		C242.214,405.88,239.403,403.741,236.635,402.132z" style="fill: rgb(75, 75, 75);"></path>
	<path class="st0" d="M323.93,402.132c-4.177-2.41-8.325-3.691-11.494-4.442c-3.168-0.751-5.372-0.944-5.63-0.972l-0.293-0.022
		h-13.74l-0.293,0.022c-0.465,0.071-7.038,0.572-14.348,3.962c-3.641,1.723-7.554,4.226-10.714,8.124
		c-3.168,3.863-5.35,9.255-5.307,15.4c0,3.948,3.197,7.152,7.146,7.152c3.955,0,7.152-3.204,7.152-7.152
		c0.043-3.018,0.837-4.742,2.139-6.416c0.987-1.23,2.368-2.346,3.992-3.29c2.424-1.416,5.35-2.374,7.596-2.896
		c0.958-0.222,1.745-0.365,2.36-0.458v20.463c0,3.948,3.204,7.145,7.152,7.145c3.948,0,7.153-3.197,7.153-7.145v-20.47
		c1.852,0.308,5.507,1.08,8.704,2.689c2.218,1.094,4.134,2.518,5.365,4.112c1.216,1.631,1.981,3.341,2.016,6.266
		c0,3.948,3.198,7.152,7.145,7.152c3.948,0,7.152-3.204,7.152-7.152c0.036-6.144-2.138-11.537-5.307-15.4
		C329.508,405.88,326.705,403.741,323.93,402.132z" style="fill: rgb(75, 75, 75);"></path>
	<path class="st0" d="M206.61,134.927c-5.643,0-10.221,4.578-10.221,10.228c0,5.643,4.578,10.221,10.221,10.221
		s10.22-4.578,10.22-10.221C216.83,139.504,212.253,134.927,206.61,134.927z" style="fill: rgb(75, 75, 75);"></path>
	<path class="st0" d="M307.572,155.376c5.643,0,10.214-4.578,10.214-10.221c0-5.65-4.571-10.228-10.214-10.228
		c-5.65,0-10.228,4.578-10.228,10.228C297.344,150.798,301.922,155.376,307.572,155.376z" style="fill: rgb(75, 75, 75);"></path>
	<path class="st0" d="M255.954,185.509c-14.376,1.552-23.524,17.065-23.524,17.065l23.524,17.073l23.524-17.073
		C279.478,202.574,270.323,187.061,255.954,185.509z" style="fill: rgb(75, 75, 75);"></path>
	<path class="st0" d="M199.843,254.736h-14.648c-0.007,43.544-3.412,76.223-12.102,128.185l14.448,2.417
		C196.303,333.076,199.85,299.081,199.843,254.736z" style="fill: rgb(75, 75, 75);"></path>
	<path class="st0" d="M312.15,254.736c-0.008,44.345,3.54,78.34,12.302,130.602l14.448-2.417
		c-8.69-51.962-12.095-84.642-12.102-128.185H312.15z" style="fill: rgb(75, 75, 75);"></path>
</g>
</svg>
